<?xml version="1.0" standalone="no"?>
<!DOCTYPE svg PUBLIC "-//W3C//DTD SVG 20010904//EN"
 "http://www.w3.org/TR/2001/REC-SVG-20010904/DTD/svg10.dtd">
<svg version="1.0" xmlns="http://www.w3.org/2000/svg"
 width="640.000000pt" height="640.000000pt" viewBox="0 0 640.000000 640.000000"
 preserveAspectRatio="xMidYMid meet">
<metadata>
Created by potrace 1.11, written by Peter Selinger 2001-2013
</metadata>
<g transform="translate(0.000000,640.000000) scale(0.100000,-0.100000)"
fill="#000000" stroke="none">
<path d="M320 3145 l0 -836 408 1 c317 1 425 5 487 17 335 63 562 272 646 593
41 156 33 420 -17 574 -55 169 -174 310 -324 383 -180 88 -278 100 -792 102
l-408 2 0 -836z m749 430 c177 -47 279 -187 287 -395 8 -212 -70 -366 -222
-441 -60 -30 -74 -32 -189 -37 l-125 -5 0 447 0 447 102 -2 c55 -1 122 -7 147
-14z"/>
<path d="M1933 3428 c2 -304 6 -562 9 -573 4 -11 13 -50 22 -86 56 -242 219
-406 461 -465 108 -27 383 -24 490 5 229 61 370 193 437 409 42 136 46 211 47
750 l1 512 -255 0 -255 0 0 -512 c0 -541 -2 -568 -48 -656 -41 -79 -156 -122
-247 -92 -85 28 -150 125 -160 239 -2 25 -4 265 -5 534 l0 487 -251 0 -250 0
4 -552z"/>
<path d="M3510 3145 l0 -835 540 0 540 0 0 195 0 195 -290 0 -290 0 0 640 0
640 -250 0 -250 0 0 -835z"/>
<path d="M4610 3145 l0 -835 250 0 250 0 1 418 1 417 21 -50 c21 -50 124 -253
245 -485 36 -69 85 -164 108 -212 l44 -88 306 0 306 0 -14 23 c-8 12 -122 202
-253 422 -131 220 -242 405 -247 412 -6 7 1 29 19 61 21 37 256 436 343 582
10 15 89 149 97 163 2 4 -129 7 -292 7 l-296 0 -129 -265 c-72 -146 -130 -268
-130 -271 0 -3 -9 -18 -19 -32 -10 -15 -19 -30 -20 -34 -1 -5 -16 -41 -35 -80
-18 -40 -37 -82 -42 -93 -6 -12 -10 131 -12 378 l-2 397 -250 0 -250 0 0 -835z"/>
<path d="M5537 2196 c-73 -27 -117 -88 -117 -161 0 -33 -2 -35 -35 -35 l-35 0
0 -65 0 -65 35 0 35 0 0 -155 0 -155 90 0 90 0 0 155 0 155 50 0 50 0 0 65 0
65 -50 0 c-46 0 -50 2 -50 24 0 40 27 59 72 52 l39 -6 -3 67 -3 68 -65 2 c-37
2 -81 -3 -103 -11z"/>
<path d="M6018 1968 l-38 -39 0 36 0 35 -90 0 -90 0 0 -220 0 -220 90 0 90 0
0 121 0 121 30 30 c28 27 36 30 75 25 l45 -5 0 80 0 79 -37 -3 c-29 -1 -47
-11 -75 -40z"/>
<path d="M5069 1692 c-28 -25 -31 -32 -25 -65 12 -65 83 -96 150 -66 53 25 58
112 8 140 -47 27 -97 23 -133 -9z"/>
</g>
</svg>
